<!--
  - Copyright (C) 2022 Alexandre Gomes Pereira
  -
  - This program is free software: you can redistribute it and/or modify
  - it under the terms of the GNU General Public License as published by
  - the Free Software Foundation, either version 3 of the License.
  -
  - This program is distributed in the hope that it will be useful,
  - but WITHOUT ANY WARRANTY; without even the implied warranty of
  - MERCHANTABILITY or FITNESS FOR A PARTICULAR PURPOSE.  See the
  - GNU General Public License for more details.
  -
  - You should have received a copy of the GNU General Public License
  - along with this program.  If not, see <https://www.gnu.org/licenses/>.
  -->

<svg xmlns="http://www.w3.org/2000/svg" viewBox="0 0 208.85 208.85"><defs><style>.cls-1{fill:#e84599;}.cls-1,.cls-11,.cls-5,.cls-7,.cls-8,.cls-9{stroke:#000;stroke-miterlimit:10;}.cls-14,.cls-2{fill:#fff;}.cls-3{fill:#4fbbeb;}.cls-4{fill:#0073ae;}.cls-13,.cls-4{opacity:0.28;}.cls-11,.cls-5,.cls-7,.cls-8,.cls-9{fill:none;}.cls-5{stroke-width:2px;}.cls-6{fill:#010101;}.cls-11,.cls-7,.cls-9{stroke-linecap:round;}.cls-7{stroke-width:8px;}.cls-11,.cls-8{stroke-width:4px;}.cls-10{opacity:0.24;}.cls-12{fill:#a3206c;}.cls-14{opacity:0.19;}.cls-15{opacity:0.31;}</style></defs><g id="Layer_4" data-name="Layer 4"><circle class="cls-1" cx="104.43" cy="104.43" r="103.93"/></g><g id="Layer_1" data-name="Layer 1"><path class="cls-2" d="M231.62,346a110,110,0,0,1,39.6-29.86,119.26,119.26,0,0,1,99.12,2.13A105.79,105.79,0,0,1,404.47,346a84.88,84.88,0,0,1-15.35,19.49c-26.71,25.21-62.05,25.44-71.07,25.49-11.32.08-37.56-.12-61.82-17.75A89.5,89.5,0,0,1,231.62,346Z" transform="translate(-213.21 -249.27)"/><path class="cls-3" d="M317.79,299.82a48.72,48.72,0,0,0-20.68,92.91h.07a5,5,0,0,1,2.28.51l.56-.09s.29,0,.58,0a5.31,5.31,0,0,1,1.49.21,4.92,4.92,0,0,1,2.3.65l.21,0h1.68a4.72,4.72,0,0,1,1.36.21,6,6,0,0,1,.61-.08,4.72,4.72,0,0,1,2.38.61,90.41,90.41,0,0,0,11.87,0c4-.44,8.26-1.13,12.4-1.38.09-.05.15-.12.24-.17a5.77,5.77,0,0,1,3.63-.56,48.73,48.73,0,0,0-21-92.78Z" transform="translate(-213.21 -249.27)"/><path class="cls-4" d="M355.18,351.79c.22-10.6-4.53-22.85-14.51-29-4.23-2.59-8.84-3.08-18-4.13a89.44,89.44,0,0,0-24.81.25c-13.62,2.11-20.65,6.64-21.64,5-1.12-1.83,6.4-10.3,16.07-15.48,14.36-7.71,39.65-11.37,57.68,3.87,15.32,13,16.53,31.43,16.66,34.12,0,.46.06,1.18.07,2.12.07,5-.63,19.87-11.7,31.69a44.2,44.2,0,0,1-19.5,11.82c-8.45,2.71-15.41,2.38-21.28,2.05-8.54-.48-15.94-.89-23.58-5.25-14.27-8.16-18.43-23.86-19.64-28.42-3.76-14.19-.84-27.51.54-27.53,1.92,0-3.63,26.15,10.68,41.53,13.46,14.45,43.57,18.4,60.58,3.48C344.26,376.69,354.87,367.09,355.18,351.79Z" transform="translate(-213.21 -249.27)"/><path class="cls-5" d="M318,299.62a48.71,48.71,0,0,0-23.15,91.66c3.91.42,7.57,2,11.54,2.09a21.31,21.31,0,0,1,6.54,1,2.77,2.77,0,0,1,.94-.06,12.29,12.29,0,0,1,2,.37,7.12,7.12,0,0,1,1.86-.5,9.11,9.11,0,0,1,3.66.3l.3-.12a4.92,4.92,0,0,1,2.89.08,4.84,4.84,0,0,1,1.73.21,5.44,5.44,0,0,1,1.62-.34,3.59,3.59,0,0,1,.72.05,78.08,78.08,0,0,0,9.3-2.19,5.23,5.23,0,0,1,1.89-.16A48.72,48.72,0,0,0,318,299.62Z" transform="translate(-213.21 -249.27)"/><path d="M277.17,348.22c.79-.24,1.58-.4,2.38-.6s1.58-.33,2.37-.45a5.45,5.45,0,0,1,2.38-.3,4.79,4.79,0,0,1,1.19.44,4.29,4.29,0,0,1,1.19.91.22.22,0,0,1,0,.3,4.06,4.06,0,0,1-1.19.9,4.46,4.46,0,0,1-1.19.45,5.77,5.77,0,0,1-2.38-.3q-1.19-.19-2.37-.45c-.8-.2-1.59-.36-2.38-.6a.17.17,0,0,1-.11-.2A.16.16,0,0,1,277.17,348.22Z" transform="translate(-213.21 -249.27)"/><path d="M316.71,385.9c-.24-.8-.4-1.59-.6-2.38s-.33-1.59-.45-2.38a5.42,5.42,0,0,1-.3-2.38,4.93,4.93,0,0,1,.44-1.19,4.26,4.26,0,0,1,.91-1.18.22.22,0,0,1,.3,0,4,4,0,0,1,.9,1.18,4.59,4.59,0,0,1,.45,1.19,5.73,5.73,0,0,1-.3,2.38c-.13.79-.28,1.59-.45,2.38s-.36,1.58-.6,2.38a.16.16,0,0,1-.2.1A.14.14,0,0,1,316.71,385.9Z" transform="translate(-213.21 -249.27)"/><path d="M357.23,348.52c-.79.24-1.59.4-2.38.6s-1.59.32-2.38.45a5.73,5.73,0,0,1-2.38.3,4.4,4.4,0,0,1-1.18-.45,3.94,3.94,0,0,1-1.19-.9.22.22,0,0,1,0-.3,4.15,4.15,0,0,1,1.19-.91,4.72,4.72,0,0,1,1.18-.44,5.42,5.42,0,0,1,2.38.3c.79.12,1.59.27,2.38.45s1.59.36,2.38.6a.15.15,0,0,1,.1.19A.14.14,0,0,1,357.23,348.52Z" transform="translate(-213.21 -249.27)"/><path d="M317,311.55c.24.79.4,1.58.6,2.37s.32,1.59.45,2.38a5.77,5.77,0,0,1,.3,2.38,4.46,4.46,0,0,1-.45,1.19,4.06,4.06,0,0,1-.9,1.19.22.22,0,0,1-.3,0,4.29,4.29,0,0,1-.91-1.19,4.79,4.79,0,0,1-.44-1.19,5.45,5.45,0,0,1,.3-2.38c.12-.79.27-1.58.45-2.38s.36-1.58.6-2.37a.15.15,0,0,1,.19-.11A.17.17,0,0,1,317,311.55Z" transform="translate(-213.21 -249.27)"/><path class="cls-6" d="M333.65,364.55a22.42,22.42,0,1,0-31.71,0A22.42,22.42,0,0,0,333.65,364.55Z" transform="translate(-213.21 -249.27)"/><path class="cls-2" d="M303.54,347.81a7.74,7.74,0,1,0-10.94,0A7.73,7.73,0,0,0,303.54,347.81Z" transform="translate(-213.21 -249.27)"/><path class="cls-7" d="M223.28,351.53A161.29,161.29,0,0,1,246.05,330,135.48,135.48,0,0,1,273,313.21c8.88-4.12,23.9-10.88,44.13-11.06,23.66-.21,41.06,8.71,49.94,13.26a139.06,139.06,0,0,1,22.19,14.42,160,160,0,0,1,23,21.83" transform="translate(-213.21 -249.27)"/><path class="cls-8" d="M230.8,347.18c2.32,3.51,31.75,46.36,86.06,46.82,55.2.46,85.45-43.29,87.61-46.54" transform="translate(-213.21 -249.27)"/><path class="cls-9" d="M245.32,387.06q9.93,19.35,19.84,38.7c2.8-3.82,8-12.13,8.38-11.44s12.71,25.85,13.74,25.85,13.14-34.95,13.83-34.65,6.45,13.53,9.68,20.3l18.49.13c1.9-2.42,5.06-7.15,5.71-7.24s13.48,18.2,14,18.36,14.3-23.28,14.86-23.15,6.8,8,10.2,12q7.89-18.68,15.79-37.34" transform="translate(-213.21 -249.27)"/><g class="cls-10"><path class="cls-11" d="M245.32,389.06q9.93,19.35,19.84,38.7c2.8-3.82,8-12.13,8.38-11.44s12.71,25.85,13.74,25.85,13.14-34.95,13.83-34.65,6.45,13.53,9.68,20.3l18.49.13c1.9-2.42,5.06-7.15,5.71-7.24s13.48,18.2,14,18.36,14.3-23.28,14.86-23.15,6.8,8,10.2,12q7.89-18.68,15.79-37.34" transform="translate(-213.21 -249.27)"/></g></g><g id="Layer_3" data-name="Layer 3"><path class="cls-12" d="M388.06,295.92a6,6,0,0,0-1.38-3,3.64,3.64,0,0,0-1.72-1,3.06,3.06,0,0,0-2.92.8,3.19,3.19,0,0,0-.8,1.49c0,.19-.05.38-.08.57l-.19,1.35a2,2,0,0,0,0,1,1.86,1.86,0,0,0,.3.93,2.53,2.53,0,0,0,1.49,1.15,3.09,3.09,0,0,0,.52.07,2,2,0,0,0,.28.84,2.54,2.54,0,0,0,1.5,1.15,2.47,2.47,0,0,0,1.92-.25,2.41,2.41,0,0,0,1.15-1.49,10.43,10.43,0,0,0,.18-1.84A11.58,11.58,0,0,0,388.06,295.92Z" transform="translate(-213.21 -249.27)"/><path class="cls-12" d="M379,285.89a6.73,6.73,0,0,0-7-3.65,3.86,3.86,0,0,0-2.63,1.85,7.57,7.57,0,0,0-.63,2.18,7.61,7.61,0,0,1-.29,1,3.54,3.54,0,0,1-.16.34c-.16.3-.34.57-.52.84l-.37.41a2.54,2.54,0,0,0,0,3.54,2.7,2.7,0,0,0,1,.58l.12.16a5.34,5.34,0,0,0,2.1,2.84,5.61,5.61,0,0,0,4.45.65,6.28,6.28,0,0,0,3.7-2.74A8,8,0,0,0,379,285.89Z" transform="translate(-213.21 -249.27)"/><path class="cls-12" d="M373.31,291.38v0C373.28,291.41,373.27,291.43,373.31,291.38Z" transform="translate(-213.21 -249.27)"/><path d="M403.3,321.57a3.43,3.43,0,0,0-.86.63,3.49,3.49,0,0,0-1,3.58c.81,1.89,3.76,1.72,4.07,1.7s2.63-.15,3.58-1.79a3.53,3.53,0,0,0-.61-4.21,3.36,3.36,0,0,0-1.89-.8,3.06,3.06,0,0,1,1.74,3.94,3.3,3.3,0,0,1-2,1.89,3.18,3.18,0,0,1-3.66-1.1,3.11,3.11,0,0,1-.12-2.32A4.19,4.19,0,0,1,403.3,321.57Z" transform="translate(-213.21 -249.27)"/><path class="cls-13" d="M403,322.05a4.65,4.65,0,0,0-.26.54,3.38,3.38,0,0,0,0,2.87,3,3,0,0,0,2.69,1.38,3.34,3.34,0,0,0,2.52-1.43,3.29,3.29,0,0,0,.15-3.75,2.38,2.38,0,0,0-.92-.69,2.67,2.67,0,0,1,.92,1.25,2.72,2.72,0,0,1-.49,2.64,2.88,2.88,0,0,1-1.86.89,2.74,2.74,0,0,1-2.18-.53,2.5,2.5,0,0,1-.72-1.27A3.06,3.06,0,0,1,403,322.05Z" transform="translate(-213.21 -249.27)"/><ellipse class="cls-14" cx="405.49" cy="323.91" rx="1.58" ry="0.95" transform="translate(-235.77 -218.82) rotate(-4.18)"/><path d="M402.55,311.23a7.1,7.1,0,0,0-3.62-.12c-.29.06-4,1-4.58,3.68-.72,3.18,3.22,5.72,3.63,6,.6.39,3.52,2.25,6.26,1a5.7,5.7,0,0,0,3.15-6,5.92,5.92,0,0,0-2.52-3.84,5.14,5.14,0,0,1,1.58,3.25,4.94,4.94,0,0,1-2.17,4.47,5.23,5.23,0,0,1-4.35.56c-2-.63-3.89-2.6-3.67-4.82a4.63,4.63,0,0,1,2-3.09A6,6,0,0,1,402.55,311.23Z" transform="translate(-213.21 -249.27)"/><path class="cls-13" d="M399.77,311.43a5.15,5.15,0,0,0-.84.45,5.37,5.37,0,0,0-2.68,3.68,4.74,4.74,0,0,0,2.18,4.28,5.33,5.33,0,0,0,4.57.51c1.95-.67,3.78-2.59,3.68-4.68a3.77,3.77,0,0,0-.53-1.74,4.27,4.27,0,0,1-3.08,5.4,4.49,4.49,0,0,1-3.21-.6,4.36,4.36,0,0,1-2.31-2.71,3.93,3.93,0,0,1,.27-2.3A4.68,4.68,0,0,1,399.77,311.43Z" transform="translate(-213.21 -249.27)"/><ellipse class="cls-14" cx="401.27" cy="316.15" rx="1.51" ry="2.51" transform="translate(-291.99 241.58) rotate(-58.23)"/><path d="M258.18,280.17a5.44,5.44,0,0,0-1.37,1c-1.29,1.27-2.41,3.68-1.55,5.68,1.28,3,6,2.74,6.45,2.71.71,0,4.17-.25,5.68-2.84a5.59,5.59,0,0,0-1-6.68,5.2,5.2,0,0,0-3-1.27,4.78,4.78,0,0,1,1.88,1.34,5,5,0,0,1,.87,4.9,5.19,5.19,0,0,1-3.19,3c-2,.65-4.68.18-5.81-1.74a5,5,0,0,1-.19-3.68A6.55,6.55,0,0,1,258.18,280.17Z" transform="translate(-213.21 -249.27)"/><path class="cls-13" d="M257.67,280.93a6.46,6.46,0,0,0-.41.86,5.37,5.37,0,0,0,0,4.56,4.74,4.74,0,0,0,4.27,2.18,5.3,5.3,0,0,0,4-2.27c1.19-1.69,1.54-4.31.24-5.95a3.74,3.74,0,0,0-1.46-1.1,4.26,4.26,0,0,1,.68,6.18,4.49,4.49,0,0,1-3,1.4,4.33,4.33,0,0,1-3.46-.84,3.84,3.84,0,0,1-1.13-2A4.74,4.74,0,0,1,257.67,280.93Z" transform="translate(-213.21 -249.27)"/><ellipse class="cls-14" cx="261.66" cy="283.87" rx="2.51" ry="1.51" transform="translate(-233.23 -229.42) rotate(-4.18)"/><path d="M269.33,287.26a3.06,3.06,0,0,0-.79.57,3.21,3.21,0,0,0-.9,3.28c.75,1.74,3.45,1.59,3.73,1.57s2.42-.14,3.29-1.64a3.24,3.24,0,0,0-.56-3.87,3,3,0,0,0-1.73-.73,2.94,2.94,0,0,1,1.1.77,2.91,2.91,0,0,1,.5,2.84,3,3,0,0,1-1.85,1.74,2.92,2.92,0,0,1-3.36-1,2.86,2.86,0,0,1-.11-2.13A3.72,3.72,0,0,1,269.33,287.26Z" transform="translate(-213.21 -249.27)"/><path class="cls-13" d="M269,287.7a2.79,2.79,0,0,0-.24.49,3.09,3.09,0,0,0,0,2.64,2.72,2.72,0,0,0,2.47,1.26,3.08,3.08,0,0,0,2.31-1.31,3,3,0,0,0,.14-3.44,2.18,2.18,0,0,0-.84-.64,2.58,2.58,0,0,1,.84,1.15,2.49,2.49,0,0,1-.45,2.42,2.59,2.59,0,0,1-1.71.82,2.51,2.51,0,0,1-2-.49,2.28,2.28,0,0,1-.66-1.17A2.71,2.71,0,0,1,269,287.7Z" transform="translate(-213.21 -249.27)"/><ellipse class="cls-14" cx="271.34" cy="289.4" rx="1.45" ry="0.88" transform="translate(-233.61 -228.7) rotate(-4.18)"/><path d="M254.32,290.85a2.18,2.18,0,0,0-.52.38,2.09,2.09,0,0,0-.59,2.16c.49,1.15,2.27,1.05,2.45,1a2.72,2.72,0,0,0,2.17-1.09,2.11,2.11,0,0,0-.37-2.54,2,2,0,0,0-1.14-.48,1.81,1.81,0,0,1,.72.51,1.9,1.9,0,0,1,.33,1.86,2,2,0,0,1-1.22,1.15,1.92,1.92,0,0,1-2.21-.67,1.87,1.87,0,0,1-.07-1.4A2.52,2.52,0,0,1,254.32,290.85Z" transform="translate(-213.21 -249.27)"/><path class="cls-13" d="M254.12,291.14a2.75,2.75,0,0,0-.15.33,2,2,0,0,0,0,1.74,1.8,1.8,0,0,0,1.62.83,2,2,0,0,0,1.52-.87,2,2,0,0,0,.1-2.26,1.44,1.44,0,0,0-.56-.42,1.59,1.59,0,0,1,.56.76,1.65,1.65,0,0,1-.3,1.59,1.75,1.75,0,0,1-1.12.54,1.69,1.69,0,0,1-1.32-.32,1.59,1.59,0,0,1-.44-.77A1.85,1.85,0,0,1,254.12,291.14Z" transform="translate(-213.21 -249.27)"/><ellipse class="cls-14" cx="255.64" cy="292.26" rx="0.96" ry="0.58" transform="translate(-233.86 -229.84) rotate(-4.18)"/><path class="cls-12" d="M236,309.76a2.14,2.14,0,0,0-.09-.34,2.44,2.44,0,0,0-.64-1.11,2.83,2.83,0,0,0-1.77-.73,2.53,2.53,0,0,0-1.26.34l-2.18,1.22a2,2,0,0,0-.7.65,1.89,1.89,0,0,0-.45.85,2,2,0,0,0,0,1,1.8,1.8,0,0,0,.3.93l.39.51a2.5,2.5,0,0,0,1.1.64l.33.05a2.48,2.48,0,0,0,.19.26,2,2,0,0,0,.7.65l.6.25a2.5,2.5,0,0,0,1.33,0l.59-.25a2.5,2.5,0,0,0,.9-.9,6,6,0,0,0,.54-1.14A3.66,3.66,0,0,0,236,312a6.09,6.09,0,0,0,.11-1.28C236.12,310.39,236.07,310.07,236,309.76Z" transform="translate(-213.21 -249.27)"/><path class="cls-12" d="M242.1,316a1.94,1.94,0,0,0-.45-.85,1.21,1.21,0,0,0-.45-.45,1.78,1.78,0,0,0-.85-.44l-.66-.09-.67.09a1.83,1.83,0,0,0-.85.44,1.91,1.91,0,0,0-.64.71,6.42,6.42,0,0,0-.43,1.13,5.17,5.17,0,0,0-.11.54l-.11.07a2.4,2.4,0,0,0-1.19,2.5,1.85,1.85,0,0,0,.29.93,2.53,2.53,0,0,0,1.5,1.14l.66.09a2.43,2.43,0,0,0,1.26-.34l.1-.06a1.76,1.76,0,0,0,.68-.08,2.51,2.51,0,0,0,1.49-1.14l.25-.6a2.56,2.56,0,0,0,0-1.23c0-.07.05-.14.07-.22a6.23,6.23,0,0,0,.16-1,3.17,3.17,0,0,0,0-.43Z" transform="translate(-213.21 -249.27)"/><path class="cls-12" d="M248,306.14h0S248,306.1,248,306.14Z" transform="translate(-213.21 -249.27)"/><path class="cls-12" d="M252.39,305.24a8.39,8.39,0,0,0-3.12-3.8c-.46-.35-.93-.68-1.39-1a7.17,7.17,0,0,0-.71-.52l0,0-.41-.35c-.2-.19-.38-.4-.58-.6h0c-.08-.11-.16-.23-.23-.35a3.45,3.45,0,0,0-2.92-1.92,3.28,3.28,0,0,0-3,2.54c-.16.62-.18,1.29-.29,1.92-.05.3-.11.59-.19.89l-.12.43c0,.07-.17.41-.15.39-.07.13-.15.26-.23.39s-.64.51-.05.09h0a2.71,2.71,0,0,0-1.14,1.48,2.55,2.55,0,0,0,.26,1.93,2.83,2.83,0,0,0,1.09,1,4.46,4.46,0,0,0,1.84,2.39,12.94,12.94,0,0,0,1.93,1.47,4.74,4.74,0,0,0,3.45.34c.69-.17,1.36-.4,2-.62a9.47,9.47,0,0,0,2.26-.91A4.28,4.28,0,0,0,252.39,305.24Z" transform="translate(-213.21 -249.27)"/><polygon class="cls-12" points="34.82 56.83 34.82 56.83 34.82 56.83 34.82 56.83"/></g><g id="Shadow"><g class="cls-15"><path d="M231.62,348.56c-.41-.46,7.34-8.73,17-16.26a127.47,127.47,0,0,1,32.17-18.43c8.09-3.09,21.21-7.95,38.91-7.69A97.73,97.73,0,0,1,348.11,311c12.4,4,20.74,9.43,28.69,14.66a160.12,160.12,0,0,1,26.58,22c-3.19,4.63-31.41,44.17-81.08,46.27-38.47,1.62-66.22-20.22-75.6-28.63a107.22,107.22,0,0,1-15.08-16.71l1.74-1.22c1.54,1.84,3.79,4.42,6.63,7.37,6.17,6.4,17.38,17.87,33.77,26.12a92.6,92.6,0,0,0,36.13,10.31c32.9,2.25,56.37-14.73,61-18.19a91.6,91.6,0,0,0,23.42-26.13c-10.32-8-36.23-25.84-73.36-28.26-11.29-.73-41.57-1.52-69.67,15.1C240.84,339.81,232.05,349.05,231.62,348.56Z" transform="translate(-213.21 -249.27)"/></g></g></svg>